<svg width="162" height="155" viewBox="0 0 162 155" fill="none" xmlns="http://www.w3.org/2000/svg">
<path d="M108.266 5.52073C99.5963 1.27573 80.6513 0.270715 70.9613 1.47071C68.7263 1.87571 64.6163 2.34072 62.8763 3.84072C59.7863 6.51072 61.2413 16.5157 64.3463 18.8407C66.9113 20.5507 72.4013 19.1557 75.4613 18.8407C80.9663 18.5857 88.0763 18.6907 93.4613 19.8307C96.7313 20.5207 103.631 23.0557 106.556 22.1557C110.186 21.0307 116.456 9.55573 108.266 5.52073Z" fill="white"/>
<path d="M51.4613 24.8257C42.7613 9.36072 41.1863 11.3857 28.9613 18.8257L36.4613 33.8257L51.4613 24.8257Z" fill="white"/>
<path d="M133.706 38.0707C136.241 37.1107 140.951 31.4857 142.961 29.3257C141.461 27.2857 140.216 25.3807 138.296 23.6707C137.066 22.5907 135.521 21.3607 133.961 20.8057C131.051 19.7857 128.921 20.5357 126.551 22.3657C116.126 30.3757 128.006 40.2607 133.706 38.0707Z" fill="white"/>
<path d="M28.9613 42.8257L13.9613 35.3257C0.956308 58.1857 -2.88369 77.5507 5.29131 102.826C8.17131 111.751 19.8113 138.346 31.3313 123.376C32.7563 121.516 33.2663 120.151 32.7863 117.811C31.9913 113.926 23.1563 104.566 19.8563 92.3257C14.3963 72.1807 21.4013 60.3607 28.9613 42.8257Z" fill="white"/>
<path d="M154.961 45.8257L138.461 51.8257L138.471 51.8499C141.901 60.4916 144.222 66.3395 144.491 75.8257C144.536 79.7557 142.946 92.1757 144.491 94.4407C146.711 97.4707 155.891 98.0407 159.461 98.3257C161.846 68.8207 162.476 74.4007 154.961 45.8257Z" fill="white"/>
<path d="M150.461 116.326L136.961 107.326C127.946 118.486 125.606 123.616 141.461 129.826L150.461 116.326Z" fill="white"/>
<path d="M45.6835 128.42L45.4613 128.326L37.9613 143.326L54.4613 149.326C60.595 134.76 60.1065 134.552 45.6835 128.42Z" fill="white"/>
<path d="M73.9913 139.726C71.9213 142.336 72.4613 150.406 72.4613 153.826C90.1313 156.376 108.056 152.056 123.461 143.326L117.461 128.326C107.936 131.656 99.2363 136.441 88.9613 137.191C84.9263 137.491 76.6313 136.396 73.9913 139.726Z" fill="white"/>
<path d="M108.266 5.52073C99.5963 1.27573 80.6513 0.270715 70.9613 1.47071C68.7263 1.87571 64.6163 2.34072 62.8763 3.84072C59.7863 6.51072 61.2413 16.5157 64.3463 18.8407C66.9113 20.5507 72.4013 19.1557 75.4613 18.8407C80.9663 18.5857 88.0763 18.6907 93.4613 19.8307C96.7313 20.5207 103.631 23.0557 106.556 22.1557C110.186 21.0307 116.456 9.55573 108.266 5.52073Z" stroke="black" stroke-width="0.4"/>
<path d="M51.4613 24.8257C42.7613 9.36072 41.1863 11.3857 28.9613 18.8257L36.4613 33.8257L51.4613 24.8257Z" stroke="black" stroke-width="0.4"/>
<path d="M133.706 38.0707C136.241 37.1107 140.951 31.4857 142.961 29.3257C141.461 27.2857 140.216 25.3807 138.296 23.6707C137.066 22.5907 135.521 21.3607 133.961 20.8057C131.051 19.7857 128.921 20.5357 126.551 22.3657C116.126 30.3757 128.006 40.2607 133.706 38.0707Z" stroke="black" stroke-width="0.4"/>
<path d="M28.9613 42.8257L13.9613 35.3257C0.956308 58.1857 -2.88369 77.5507 5.29131 102.826C8.17131 111.751 19.8113 138.346 31.3313 123.376C32.7563 121.516 33.2663 120.151 32.7863 117.811C31.9913 113.926 23.1563 104.566 19.8563 92.3257C14.3963 72.1807 21.4013 60.3607 28.9613 42.8257Z" stroke="black" stroke-width="0.4"/>
<path d="M154.961 45.8257L138.461 51.8257L138.471 51.8499C141.901 60.4916 144.222 66.3395 144.491 75.8257C144.536 79.7557 142.946 92.1757 144.491 94.4407C146.711 97.4707 155.891 98.0407 159.461 98.3257C161.846 68.8207 162.476 74.4007 154.961 45.8257Z" stroke="black" stroke-width="0.4"/>
<path d="M150.461 116.326L136.961 107.326C127.946 118.486 125.606 123.616 141.461 129.826L150.461 116.326Z" stroke="black" stroke-width="0.4"/>
<path d="M45.6835 128.42L45.4613 128.326L37.9613 143.326L54.4613 149.326C60.595 134.76 60.1065 134.552 45.6835 128.42Z" stroke="black" stroke-width="0.4"/>
<path d="M73.9913 139.726C71.9213 142.336 72.4613 150.406 72.4613 153.826C90.1313 156.376 108.056 152.056 123.461 143.326L117.461 128.326C107.936 131.656 99.2363 136.441 88.9613 137.191C84.9263 137.491 76.6313 136.396 73.9913 139.726Z" stroke="black" stroke-width="0.4"/>
</svg>
